<svg xmlns="http://www.w3.org/2000/svg" width="256" height="256">
  <path fill="#34475e" d="m73.484 100.15 15.085 15.085-34.667 34.667c-14.98 14.98-14.98 39.268 0 54.248 14.64 14.64 38.169 14.973 53.213.999l1.035-.999 34.667-34.667 15.085 15.085-34.667 34.667c-23.311 23.312-61.106 23.312-84.418 0-22.91-22.91-23.304-59.808-1.185-83.2l1.185-1.218zm80-10.667 15.084 15.085-64 64-15.084-15.085zm65.751-50.666c22.91 22.91 23.305 59.808 1.185 83.2l-1.185 1.218-34.667 34.667-15.085-15.085 34.667-34.667c14.98-14.98 14.98-39.268 0-54.248-14.64-14.64-38.169-14.973-53.213-.998l-1.035.998-34.667 34.667-15.085-15.086 34.667-34.666c23.311-23.311 61.107-23.311 84.418 0" class="transform-group"/>
</svg>