<svg t="1741091763775" class="icon" viewBox="0 0 1024 1024" version="1.1" xmlns="http://www.w3.org/2000/svg" p-id="1478" width="200" height="200"><path d="M409 379.1c0-36.42 25.12-50.47 56.11-31.38L674 476.42c31 19.08 30.91 50 0 69L465.11 674.15c-31 19.09-56.11 5-56.11-31.38z m0 0" fill="#FFFFFF" p-id="1479"></path><path d="M512 109.35A401.22 401.22 0 1 1 355.28 141 400.2 400.2 0 0 1 512 109.35m0-43C265.87 66.35 66.35 265.87 66.35 512S265.87 957.65 512 957.65 957.65 758.13 957.65 512 758.13 66.35 512 66.35z" fill="#FFFFFF" p-id="1480" ></path></svg>