<?xml version="1.0" encoding="UTF-8"?>
<svg width="240px" height="240px" viewBox="0 0 240 240" version="1.1" xmlns="http://www.w3.org/2000/svg" xmlns:xlink="http://www.w3.org/1999/xlink">
    <title>EmptyState/no_result</title>
    
    <g id="EmptyState/no_result" stroke="none" stroke-width="1" fill="none" fill-rule="evenodd">
        <path d="M59,86 L90.9855403,86 C96.2868496,86 101.371286,88.1047444 105.121511,91.8517021 L113.211822,99.9349646 C116.962048,103.681922 122.046484,105.786667 127.347793,105.786667 L181,105.786667 C192.045695,105.786667 201,114.740972 201,125.786667 L201,216 C201,227.045695 192.045695,236 181,236 L59,236 C47.954305,236 39,227.045695 39,216 L39,106 C39,94.954305 47.954305,86 59,86 Z" id="蒙版" fill="#C4DAFF"></path>
        <g id="编组-5" transform="translate(50.216258, 18.000000)">
            <path d="M82.2544062,18.7560085 C88.1726247,34.9149672 89.9360074,38.5031712 90.5150286,54.4333518 C90.2925122,58.0697196 90.1549348,62.0191521 88.4513684,65.2100046 C86.177155,70.0745496 80.614245,73.4460164 75.3587903,73.5062211 C69.9442245,73.6025488 64.6361316,70.2672048 62.2470711,65.113677 C60.5650385,61.9950702 60.6188731,57.7205319 62.9241909,54.890908 C65.4316876,52.1696527 69.8413406,51.4953593 73.0139938,53.1931337 C76.5036731,54.8066214 78.5864745,58.1660472 79.3569077,61.6940464 C80.1285371,65.2340865 79.7899772,69.0751505 78.8484696,72.5670268 C76.8793191,81.0438576 72.3020778,102.635143 67.4725148,117" id="路径" stroke="#9FC1FF" stroke-width="4" stroke-linecap="round" stroke-dasharray="4,8"></path>
            <path d="M92.3785305,6.11725789 C92.3578799,9.43129633 89.1966284,11.4668225 85.1887053,10.4070031 C80.9673935,9.70045681 77.9799506,8.97708802 77.7872123,6.01632271 C77.8835814,2.97144475 81.2771514,1.79386764 85.2472152,0.44806523 C90.0088825,-1.40241309 92.1083527,2.87050957 92.3785305,6.11725789 Z" id="矩形备份" fill="#FFD95D"></path>
            <path d="M65.104347,16.2780661 C67.2433974,18.43135 71.7520958,19.0537836 73.9496561,15.7565677 C76.3606051,12.1229012 78.422216,9.46494139 76.207447,7.04249705 C74.0683966,4.88921319 71.9861351,6.33595078 67.2244678,8.1864291 C63.4075621,10.087375 62.5987498,13.9060894 65.104347,16.2780661 Z" id="矩形备份" fill="#FFD95D"></path>
            <path d="M74.973578,2.53405897 C76.9216111,1.72657752 79.2533997,2.31536608 80.2928096,3.86303885 C80.7367959,4.35089222 81.2565008,5.10790608 81.4113798,5.67987211 C83.0685846,9.46494139 82.5471588,13.2163656 80.3117392,14.0911372 C77.8629309,15.3360044 74.4900115,13.2163656 73.1993536,9.63316669 C72.8913166,8.50605717 72.7381585,7.95091368 72.50584,7.09296464 C72.2563128,5.05743849 73.0272659,3.34154042 74.973578,2.53405897 C75.2626854,2.46676885 74.973578,2.53405897 74.973578,2.53405897 Z" id="矩形备份" fill="#A66900" fill-rule="nonzero"></path>
            <path d="M122.978417,15.4866624 C127.829543,15.4866624 131.762159,19.4192776 131.762159,24.2704043 C131.762159,29.121531 127.829543,33.0541462 122.978417,33.0541462 C118.12729,33.0541462 114.194675,29.121531 114.194675,24.2704043 C114.194675,19.4192776 118.12729,15.4866624 122.978417,15.4866624 Z M122.978417,19.0541462 C120.097557,19.0541462 117.762159,21.3895445 117.762159,24.2704043 C117.762159,27.1512641 120.097557,29.4866624 122.978417,29.4866624 C125.859276,29.4866624 128.194675,27.1512641 128.194675,24.2704043 C128.194675,21.3895445 125.859276,19.0541462 122.978417,19.0541462 Z" id="椭圆形" fill="#5686FF"></path>
            <path d="M6.72805728,81.4350784 C11.5784323,81.4350784 15.5041169,85.3950714 15.5041169,90.2722473 C15.5041169,92.6430309 14.5702698,94.8701889 12.9391441,96.5155698 C12.2455868,97.2151884 11.1161946,97.2201021 10.4165759,96.5265448 C9.71695731,95.8329875 9.71204363,94.7035953 10.4056009,94.0039767 C11.3801772,93.0208831 11.936633,91.693776 11.936633,90.2722473 C11.936633,87.3584229 9.60118305,85.0025623 6.72805728,85.0025623 C5.32959943,85.0025623 4.02213304,85.560407 3.05051363,86.5405179 C2.35695633,87.2401365 1.22756409,87.2450502 0.527945465,86.5514929 C-0.171673164,85.8579356 -0.176586842,84.7285433 0.516970456,84.0289247 C2.15105302,82.3805611 4.36705838,81.4350784 6.72805728,81.4350784 Z" id="路径" fill="#F75C61"></path>
            <circle id="椭圆形" fill="#51CF88" cx="112.538103" cy="88.8784795" r="6"></circle>
            <circle id="椭圆形" fill="#FFD95D" cx="133.213144" cy="63.0416219" r="5"></circle>
            <circle id="椭圆形备份" fill="#89D3FB" cx="21.2131441" cy="37.0416219" r="6"></circle>
        </g>
        <path d="M42.4871694,124 L197.512831,124 C208.558526,124 217.512831,132.954305 217.512831,144 C217.512831,144.779857 217.467217,145.559046 217.376225,146.333575 L208.917578,218.333575 C207.734109,228.407267 199.197155,236 189.054184,236 L50.945816,236 C40.8028447,236 32.2658914,228.407267 31.0824219,218.333575 L22.6237753,146.333575 C21.3349772,135.363326 29.1833443,125.425404 40.153594,124.136606 C40.9281239,124.045613 41.7073129,124 42.4871694,124 Z" id="蒙版" fill="#9FC1FF"></path>
        <path d="M197.51432,124 C198.703851,124 199.869127,124.103848 201.001576,124.302972 L201.001489,216 C201.001489,227.045695 192.047184,236 181.001489,236 L59.0014891,236 C47.9557941,236 39.0014891,227.045695 39.0014891,216 L39.001107,124.30582 C39.3816687,124.238784 39.7664166,124.182267 40.1550831,124.136606 C40.929613,124.045613 41.708802,124 42.4886585,124 L197.51432,124 Z" id="形状结合" fill="#7BA5FF"></path>
        <path d="M100.5,160 C101.328427,160 102,160.671573 102,161.5 C102,161.610538 101.997609,161.720517 101.992875,161.829889 C101.997579,161.885707 102,161.942571 102,162 C102,162.17952 101.976348,162.353515 101.93199,162.51904 C101.434196,166.179103 98.2965256,169 94.5,169 C91.2348735,169 88.4570708,166.913518 87.4271621,164.001125 L76,164 C74.8954305,164 74,163.104569 74,162 C74,160.895431 74.8954305,160 76,160 L100.5,160 Z" id="形状结合" fill="#3264FF"></path>
        <path d="M128,205 C129.104569,205 130,205.895431 130,207 C130,208.104569 129.104569,209 128,209 L112,209 C110.895431,209 110,208.104569 110,207 C110,205.895431 110.895431,205 112,205 L128,205 Z" id="路径-3备份-2" fill="#3264FF"></path>
        <path d="M164.5,160 C165.328427,160 166,160.671573 166,161.5 C166,161.610538 165.997609,161.720517 165.992875,161.829889 C165.997579,161.885707 166,161.942571 166,162 C166,162.17952 165.976348,162.353515 165.93199,162.51904 C165.434196,166.179103 162.296526,169 158.5,169 C155.234873,169 152.457071,166.913518 151.427162,164.001125 L140,164 C138.895431,164 138,163.104569 138,162 C138,160.895431 138.895431,160 140,160 L164.5,160 Z" id="形状结合" fill="#3264FF"></path>
        <path d="M220,236 C221.104569,236 222,236.895431 222,238 C222,239.104569 221.104569,240 220,240 L20,240 C18.8954305,240 18,239.104569 18,238 C18,236.895431 18.8954305,236 20,236 L220,236 Z" id="路径-3备份-3" fill="#C5CCD4"></path>
    </g>
</svg>