<?xml version="1.0" encoding="UTF-8"?>
<svg width="20px" height="20px" viewBox="0 0 20 20" version="1.1" xmlns="http://www.w3.org/2000/svg" xmlns:xlink="http://www.w3.org/1999/xlink">
    <title>Initiative</title>
    <g id="Initiative" stroke="none" stroke-width="1" fill="none" fill-rule="evenodd">
        <rect id="矩形" fill="#6E82FB" x="0" y="0" width="20" height="20" rx="2"></rect>
        <g id="编组" transform="translate(4, 4.2)" fill="#FFFFFF" fill-rule="nonzero">
            <path d="M6.64541244,0.134993983 L12.1017056,3.49345933 C12.3325973,3.64550956 12.4091618,3.94870511 12.2781419,4.19214715 C12.2372126,4.26991366 12.1763143,4.33537934 12.1017056,4.38181619 L6.64364808,7.73939935 C6.35506247,7.91939133 5.98918155,7.91939133 5.70059595,7.73939935 L0.244302763,4.38181619 C0.0143910728,4.22989355 -0.0620595636,3.92791353 0.0678664462,3.68489273 C0.108540249,3.60647915 0.169460215,3.54038098 0.244302763,3.49345933 L5.7032425,0.134993983 C5.9918281,-0.0449979943 6.35770901,-0.0449979943 6.64629461,0.134993983 L6.64541244,0.134993983 Z" id="形状"></path>
            <path d="M11.6403246,7.04623764 C11.7501578,6.97969732 11.88292,6.96244182 12.0061136,6.99869496 C12.1293071,7.0349481 12.2315612,7.12136372 12.2878459,7.23678888 C12.4017482,7.4510689 12.3584144,7.71504421 12.1819841,7.88166362 L12.1114096,7.93459451 L7.35027553,10.8634374 C6.67276007,11.2807093 5.85056682,11.3098213 5.15364336,10.9516556 L4.99485067,10.8634374 L0.239891854,7.93812325 C0.00949072138,7.78613643 -0.0670167743,7.48354928 0.0634555368,7.2403176 C0.167264494,7.0293676 0.41331402,6.93049144 0.634227034,7.01095038 L0.711859019,7.04976638 L5.46505346,9.97508055 C5.85938863,10.2176805 6.33488451,10.2414994 6.74421677,10.0474194 L6.87919055,9.97508055 L11.6394425,7.04623764 L11.6403246,7.04623764 Z" id="路径" stroke="#FFFFFF" stroke-width="0.5"></path>
        </g>
    </g>
</svg>