<?xml version="1.0" encoding="UTF-8"?>
<svg width="20px" height="20px" viewBox="0 0 20 20" version="1.1" xmlns="http://www.w3.org/2000/svg" xmlns:xlink="http://www.w3.org/1999/xlink">
    <title>yuliu4</title>
    <g id="yuliu4" stroke="none" stroke-width="1" fill="none" fill-rule="evenodd">
        <rect id="矩形" fill="#30ACF1" x="0" y="0" width="20" height="20" rx="2"></rect>
        <path d="M16,8.19246792 C16,6.15687954 14.4300126,4.5 12.5030632,4.5 C11.5512154,4.5 10.6503806,4.91785845 10,5.63068211 C9.34873944,4.91787038 8.44700127,4.5 7.49693683,4.5 C5.56909575,4.5 4,6.15597214 4,8.19246792 C4,8.26074989 4.00626517,8.32173683 4.01162693,8.37181107 C4.01073526,8.388204 4.00984359,8.40458498 4.00984359,8.42188531 C4.00984359,8.78237448 4.09571391,9.17838365 4.26479129,9.59900012 C4.27016478,9.61446177 4.27552655,9.62903989 4.28179171,9.64266285 C5.3472455,12.2436102 9.44893518,15.2360058 9.62336258,15.3734414 C9.73161856,15.4581163 9.86041819,15.5 9.99015641,15.5 C10.1216663,15.5 10.2513927,15.4563134 10.3605052,15.3698237 C10.5098954,15.2514914 14.0086273,12.6887981 15.3970305,10.2644598 C15.4498034,10.1825429 15.4891777,10.1033483 15.5240702,10.0350424 C15.5347938,10.0132051 15.5446374,9.99136775 15.5562643,9.97041393 L15.5607461,9.9603967 C15.5652279,9.9522062 15.5705897,9.94309637 15.5759515,9.93581327 C15.6591468,9.77102437 15.7253299,9.61809137 15.7781263,9.46878799 C15.9221313,9.08461086 15.9928314,8.74230554 15.9928314,8.42276883 C15.9928314,8.39819735 15.991928,8.37634808 15.9901447,8.35812841 C15.99465,8.31628048 16,8.25983055 16,8.19246792 Z" id="路径" fill="#FFFFFF" fill-rule="nonzero"></path>
    </g>
</svg>