<?xml version="1.0" encoding="UTF-8"?>
<svg width="20px" height="20px" viewBox="0 0 20 20" version="1.1" xmlns="http://www.w3.org/2000/svg" xmlns:xlink="http://www.w3.org/1999/xlink">
    <title>yuliu5</title>
    <g id="yuliu5" stroke="none" stroke-width="1" fill="none" fill-rule="evenodd">
        <rect id="矩形" fill="#2EB343" x="0" y="0" width="20" height="20" rx="2"></rect>
        <path d="M7,10 L13,10 C13.8284271,10 14.5,10.6715729 14.5,11.5 C14.5,12.3284271 13.8284271,13 13,13 L7,13 C6.17157288,13 5.5,12.3284271 5.5,11.5 C5.5,10.6715729 6.17157288,10 7,10 Z" id="矩形备份-3" fill="#FFFFFF" transform="translate(10, 11.5) rotate(-270) translate(-10, -11.5)"></path>
        <g id="编组" transform="translate(4.35, 3.3)" fill="#FFFFFF">
            <path d="M4.9,2.3890873 L9.9,2.3890873 C10.7284271,2.3890873 11.4,3.06066017 11.4,3.8890873 C11.4,4.71751442 10.7284271,5.3890873 9.9,5.3890873 L4.9,5.3890873 C4.07157288,5.3890873 3.4,4.71751442 3.4,3.8890873 C3.4,3.06066017 4.07157288,2.3890873 4.9,2.3890873 Z" id="矩形备份-5" transform="translate(7.4, 3.8891) rotate(-315) translate(-7.4, -3.8891)"></path>
            <path d="M1.3890873,2.3890873 L6.3890873,2.3890873 C7.21751442,2.3890873 7.8890873,3.06066017 7.8890873,3.8890873 C7.8890873,4.71751442 7.21751442,5.3890873 6.3890873,5.3890873 L1.3890873,5.3890873 C0.560660172,5.3890873 -0.110912703,4.71751442 -0.110912703,3.8890873 C-0.110912703,3.06066017 0.560660172,2.3890873 1.3890873,2.3890873 Z" id="矩形备份-4" transform="translate(3.8891, 3.8891) rotate(-225) translate(-3.8891, -3.8891)"></path>
        </g>
    </g>
</svg>