<?xml version="1.0" encoding="UTF-8"?>
<svg width="20px" height="20px" viewBox="0 0 20 20" version="1.1" xmlns="http://www.w3.org/2000/svg" xmlns:xlink="http://www.w3.org/1999/xlink">
    <title>yuliu14</title>
    <g id="yuliu14" stroke="none" stroke-width="1" fill="none" fill-rule="evenodd">
        <rect id="矩形" fill="#FF9C24" x="0" y="0" width="20" height="20" rx="2"></rect>
        <path d="M10,3.25 C11.7615981,3.25 13.1911367,4.72206668 13.1911367,6.53296703 L13.191,8.536 L13.7753721,8.53610675 C14.1437754,8.53610675 14.4456614,8.81575964 14.4934173,9.18159486 L14.5,9.2833595 L14.5,14.7527473 C14.5,15.16719 14.1772666,15.5 13.7753721,15.5 L6.22462788,15.5 C5.82273342,15.5 5.5,15.16719 5.5,14.7527473 L5.5,9.2833595 C5.5,8.8689168 5.82273342,8.53610675 6.22462788,8.53610675 L6.808,8.536 L6.80886333,6.53296703 C6.80886333,4.72416461 8.23635188,3.25 10,3.25 Z M10,4.96193093 C9.14117367,4.96193093 8.43538566,5.68975558 8.43538566,6.58320251 L8.44147374,8.52904529 L11.564,8.536 L11.5646143,6.58320251 C11.5646143,5.68975558 10.8588263,4.96193093 10,4.96193093 Z" id="形状结合" fill="#FFFFFF" fill-rule="nonzero"></path>
    </g>
</svg>