<?xml version="1.0" encoding="UTF-8"?>
<svg width="20px" height="20px" viewBox="0 0 20 20" version="1.1" xmlns="http://www.w3.org/2000/svg" xmlns:xlink="http://www.w3.org/1999/xlink">
    <title>story</title>
    <g id="story" stroke="none" stroke-width="1" fill="none" fill-rule="evenodd">
        <rect id="矩形" fill="#2EB343" x="0" y="0" width="20" height="20" rx="2"></rect>
        <path d="M13.8001493,5 L6.33334622,5 C6.24493839,5 6.16015044,5.03511459 6.09763556,5.09762727 C6.03512068,5.16013996 6,5.24492667 6,5.33333451 L6,14.666853 C6.00039468,14.7867447 6.06501813,14.8972275 6.16932559,14.9563387 C6.27363305,15.0154499 6.40162082,15.0141202 6.50467763,14.9528546 L10.0667419,12.8154777 L13.6288179,14.9528546 C13.7320247,15.0142553 13.8601864,15.0157796 13.9648243,14.9568507 C14.0691402,14.8975837 14.1334956,14.7868295 14.1334956,14.666853 L14.1334956,5.33333451 C14.1334956,5.24492667 14.0983748,5.16013996 14.03586,5.09762727 C13.9733451,5.03511459 13.8885571,5 13.8001493,5 L13.8001493,5 Z" id="路径" fill="#FFFFFF" fill-rule="nonzero"></path>
    </g>
</svg>