<?xml version="1.0" encoding="UTF-8"?>
<svg width="20px" height="20px" viewBox="0 0 20 20" version="1.1" xmlns="http://www.w3.org/2000/svg" xmlns:xlink="http://www.w3.org/1999/xlink">
    <title>idea</title>
    <g id="idea" stroke="none" stroke-width="1" fill="none" fill-rule="evenodd">
        <rect id="矩形" fill="#FF9C24" x="0" y="0" width="20" height="20" rx="2"></rect>
        <path d="M9.97853912,4.00040505 C12.3415986,4.00040505 14.2570782,5.91547965 14.2570782,8.27853912 C14.2570782,9.79342469 13.4619658,11.1665429 12.2046918,11.9328968 L12.1050496,11.991629 L12.1050496,13.4429218 C12.1049979,13.8801842 11.7678523,14.2434678 11.3318099,14.2761088 L11.2694323,14.2785391 L8.68724094,14.2785391 C8.46565866,14.2785391 8.25315773,14.1904882 8.09651339,14.0337679 C7.93986905,13.8770476 7.85192116,13.664504 7.85202862,13.4429218 L7.85162357,11.991629 L7.75238642,11.9328968 C6.51571267,11.1796847 5.74412689,9.85189263 5.70202525,8.40450955 L5.7,8.27853912 C5.7,5.91547965 7.6158847,4 9.97853912,4 L9.97853912,4.00040505 Z M12.1305677,15.5949504 C12.1305677,15.8186531 11.9492209,16 11.7255181,16 L8.23196517,16 C8.00826244,16 7.82691555,15.8186531 7.82691555,15.5949504 C7.82691555,15.3712477 8.00826244,15.1899008 8.23196517,15.1899008 L11.7255181,15.1899008 C11.9492209,15.1899008 12.1305677,15.3712477 12.1305677,15.5949504 Z" id="形状" fill="#FFFFFF" fill-rule="nonzero"></path>
    </g>
</svg>