<?xml version="1.0" encoding="UTF-8"?>
<svg width="20px" height="20px" viewBox="0 0 20 20" version="1.1" xmlns="http://www.w3.org/2000/svg" xmlns:xlink="http://www.w3.org/1999/xlink">
    <title>yuliu1</title>
    <g id="yuliu1" stroke="none" stroke-width="1" fill="none" fill-rule="evenodd">
        <rect id="矩形" fill="#F93920" x="0" y="0" width="20" height="20" rx="2"></rect>
        <path d="M4.54088819,11.9994216 C4.31522502,11.9997084 4.11314854,11.8752448 4.03417675,11.6873263 C3.95520496,11.4994078 4.01598676,11.2876516 4.18658852,11.1563426 L7.5788999,8.54212553 C7.78409434,8.38384696 8.0896107,8.3856973 8.29236007,8.54644655 L11.1975094,10.84859 L15.0640206,7.15315767 C15.2673012,6.95892852 15.6092162,6.94796587 15.8277093,7.1286719 C16.0462023,7.30937794 16.0585344,7.61332297 15.8552539,7.80755214 L11.628502,11.8467456 C11.4286215,12.0382485 11.0930153,12.0521296 10.8739949,11.877953 L7.92779866,9.54460217 L4.89410769,11.8827541 C4.7960421,11.9582285 4.67060054,11.9996615 4.54088819,11.9994216 Z" id="路径" stroke="#FFFFFF" stroke-width="1.1" fill="#FFFFFF" fill-rule="nonzero"></path>
    </g>
</svg>