<?xml version="1.0" encoding="UTF-8"?>
<svg width="20px" height="20px" viewBox="0 0 20 20" version="1.1" xmlns="http://www.w3.org/2000/svg" xmlns:xlink="http://www.w3.org/1999/xlink">
    <title>yuliu8</title>
    <g id="yuliu8" stroke="none" stroke-width="1" fill="none" fill-rule="evenodd">
        <rect id="矩形" fill="#904EE2" x="0" y="0" width="20" height="20" rx="2"></rect>
        <path d="M10,3 C13.8660985,3 17,6.13390151 17,10 C17,13.8660985 13.8660985,17 10,17 C6.13390151,17 3,13.8660985 3,10 C3,6.13390151 6.13390151,3 10,3 Z M10,4.5774648 C7.00521657,4.5774648 4.57746491,7.00521653 4.57746491,10 C4.57746491,12.9947835 7.00521657,15.4225352 10,15.4225352 C12.9947835,15.4225352 15.4225352,12.9947835 15.4225352,10 C15.4225352,7.0052165 12.9947835,4.5774648 10,4.5774648 Z M13.4354883,7.70108703 C13.5833772,7.84879228 13.6662795,8.04936166 13.6658386,8.25838036 C13.6653907,8.46739739 13.5816363,8.66761243 13.4331555,8.81465296 L9.86926694,12.3474852 C9.56088903,12.6531651 9.06344081,12.6521075 8.72747887,12.2753944 L8.75635567,12.344419 L6.80309888,10.3911411 C6.5980625,10.1931106 6.51583225,9.8998571 6.58801342,9.62409291 C6.66019459,9.34832873 6.87555409,9.13296922 7.15131828,9.06078806 C7.42708247,8.9886069 7.72033597,9.07083715 7.91716546,9.27465145 L9.31183099,10.6694366 L12.3171706,7.69799352 C12.6273371,7.39116586 13.1271156,7.39257468 13.4354883,7.70108703 Z" id="形状结合" fill="#FFFFFF" fill-rule="nonzero"></path>
    </g>
</svg>