<?xml version="1.0" encoding="UTF-8"?>
<svg width="20px" height="20px" viewBox="0 0 20 20" version="1.1" xmlns="http://www.w3.org/2000/svg" xmlns:xlink="http://www.w3.org/1999/xlink">
    <title>yuliu9</title>
    <g id="yuliu9" stroke="none" stroke-width="1" fill="none" fill-rule="evenodd">
        <rect id="矩形" fill="#2EB343" x="0" y="0" width="20" height="20" rx="2"></rect>
        <path d="M10.0497804,3 C10.4958752,3 10.8623408,3.3677035 10.8886985,3.84141897 L10.8882646,4.94028191 L10.9262543,4.95014597 C11.2658179,5.03592006 11.5927772,5.16907733 11.8977767,5.34520652 L12.1222628,5.48529171 C12.4098622,5.66947733 12.6708997,5.89681762 12.8976519,6.1606346 C13.0992794,6.39765521 13.164709,6.73082659 13.0695277,7.03291042 C12.9738626,7.3365295 12.7304186,7.56260665 12.4319216,7.62282734 C12.132372,7.68326038 11.8259699,7.56684382 11.6359277,7.32526348 C11.5157753,7.19348596 11.3799411,7.07919362 11.2289381,6.98332505 C10.8781629,6.74242316 10.470253,6.61388555 10.0497112,6.61265012 C9.61013866,6.59475381 9.18280114,6.77155797 8.86990494,7.1007318 C8.73301982,7.24928826 8.66169678,7.45382937 8.67409831,7.65869255 C8.7201699,8.10632628 9.09365279,8.44784756 10.2958692,9.11089246 L10.5743491,9.26361973 C11.2496884,9.59150786 11.8742939,10.0265534 12.4317923,10.5589264 C13.2683205,11.4806646 13.3268709,12.9202635 12.5674495,13.9166819 C12.1424793,14.4532075 11.5666274,14.8308421 10.9257139,14.9933972 L10.8872787,15.0025365 L10.8880415,16.1110768 C10.8883675,16.3061918 10.8278002,16.4949649 10.7171705,16.6487756 L10.6448718,16.7366376 C10.4874469,16.9042891 10.272935,16.9986769 10.1209962,16.967149 L10.0469269,17 C9.58479595,16.9974013 9.21309966,16.6022627 9.209877,16.1157888 L9.20925036,15.0153535 L9.17255445,15.0057213 C8.83261723,14.9207345 8.50539186,14.7876489 8.20064261,14.6110957 L7.97644752,14.470603 C7.68845325,14.2868228 7.42727724,14.0593619 7.19858934,13.7923238 C6.90733446,13.4228141 6.94777424,12.8746819 7.29029553,12.5575447 C7.63631261,12.2371708 8.16176986,12.2713904 8.46553965,12.6308245 C8.58559734,12.7622429 8.72106323,12.8764675 8.87093966,12.9722511 C9.22239667,13.2114669 9.63019902,13.3389278 10.0505439,13.3400119 C10.4900343,13.3580719 10.917408,13.1817748 11.230693,12.8532718 C11.3675435,12.7049834 11.4384621,12.500388 11.4251312,12.2953388 C11.3791521,11.8473319 11.0080148,11.5078563 9.80451733,10.8418603 L9.52463843,10.6890813 C8.84919425,10.3619281 8.22452526,9.92731655 7.6669853,9.39499373 C6.83244696,8.471912 6.77397694,7.03366878 7.53146288,6.03596804 C7.95686148,5.49905295 8.53308322,5.12098118 9.1742177,4.95794153 L9.21023628,4.94718332 L9.21101639,3.8359098 C9.23520443,3.40371937 9.54931972,3.05716446 9.94836765,3.00640566 L10.0497804,3 Z" id="形状结合" fill="#FFFFFF" fill-rule="nonzero"></path>
    </g>
</svg>