<?xml version="1.0" encoding="UTF-8"?>
<svg width="20px" height="20px" viewBox="0 0 20 20" version="1.1" xmlns="http://www.w3.org/2000/svg" xmlns:xlink="http://www.w3.org/1999/xlink">
    <title>yuliu10</title>
    <g id="yuliu10" stroke="none" stroke-width="1" fill="none" fill-rule="evenodd">
        <rect id="矩形" fill="#30ACF1" x="0" y="0" width="20" height="20" rx="2"></rect>
        <path d="M15.8290545,6.15129285 C16.0667717,6.37662229 16.2007134,6.6841214 16.2000023,7.00534652 C16.1992742,7.32652639 16.0639837,7.63346355 15.8253209,7.85777349 L9.4508914,13.8548173 C8.95972715,14.3168869 8.17173983,14.3148749 7.68329078,13.8500454 L4.19003812,10.5346725 C3.85823531,10.2304871 3.72460332,9.77998082 3.84167719,9.35548743 C3.95798785,8.9337613 4.3028377,8.6064756 4.74190568,8.49740322 C5.17883067,8.3888632 5.64366731,8.51256778 5.95675968,8.82026811 L8.52,11.253 L8.61,11.254 L14.0515778,6.14651334 C14.5456551,5.6826484 15.3377096,5.68476231 15.8290545,6.15129285 Z" id="形状结合" fill="#FFFFFF" fill-rule="nonzero"></path>
    </g>
</svg>