<?xml version="1.0" encoding="UTF-8"?>
<svg width="20px" height="20px" viewBox="0 0 20 20" version="1.1" xmlns="http://www.w3.org/2000/svg" xmlns:xlink="http://www.w3.org/1999/xlink">
    <title>yuliu11</title>
    <g id="yuliu11" stroke="none" stroke-width="1" fill="none" fill-rule="evenodd">
        <rect id="矩形" fill="#FF9C24" x="0" y="0" width="20" height="20" rx="2"></rect>
        <path d="M9.71709644,14.4113714 C10.0754948,14.4113714 10.3786252,14.5416992 10.6200779,14.7998938 C10.8602745,15.0567451 10.9807271,15.377105 10.9807271,15.7556857 C10.9807271,16.1342663 10.8602745,16.4546263 10.6200779,16.7114776 C10.3786252,16.9696721 10.0754948,17.1 9.71709644,17.1 C9.3586981,17.1 9.05556772,16.9696721 8.814115,16.7114776 C8.5739184,16.4546263 8.45346581,16.1342663 8.45346581,15.7556857 C8.45346581,15.377105 8.5739184,15.0567451 8.814115,14.7998938 C9.05556772,14.5416992 9.3586981,14.4113714 9.71709644,14.4113714 Z M10.1081913,2.90149481 C10.6100165,2.88901526 11.0778414,2.95467476 11.5111944,3.09870472 C11.9473435,3.24366401 12.3225895,3.46799314 12.6358489,3.7713714 C12.9487803,4.07443198 13.1905985,4.44654254 13.3611277,4.88670576 C13.5315248,5.32652821 13.6105362,5.8334675 13.5988687,6.4073668 C13.5871972,6.90659459 13.4966185,7.37839303 13.3270739,7.82226662 C13.1561498,8.26975165 12.8205181,8.74724963 12.3215352,9.25601037 C11.9930543,9.5951552 11.7329961,9.88835881 11.5415649,10.1352086 C11.3512102,10.3806701 11.2062564,10.6012535 11.1067052,10.796419 C11.0088306,10.9882976 10.9466684,11.1761543 10.9197836,11.3601477 C10.8919932,11.5503387 10.8780538,11.7590214 10.8780538,11.9861452 C10.8780538,12.3671516 10.764576,12.6604045 10.5352993,12.8579061 C10.3113332,13.050833 10.0370981,13.1474722 9.71709644,13.1474722 C9.39842794,13.1474722 9.12529669,13.0578599 8.90159422,12.8784498 C8.66973744,12.6924998 8.55613911,12.3921866 8.55613911,11.9861452 C8.55613911,11.7814824 8.59444927,11.532532 8.67055475,11.2383031 C8.74599573,10.9466432 8.85311955,10.6370443 8.99186068,10.3094135 C9.13095755,9.98094256 9.30465893,9.65279223 9.51290039,9.32495707 C9.72197659,8.99580778 9.96585657,8.68844802 10.242985,8.40448414 C10.4463967,8.18696829 10.6184428,7.98791291 10.7590695,7.80745997 C10.8975767,7.62972674 11.0050637,7.46173756 11.081655,7.30378378 C11.1579943,7.14634962 11.212336,6.98945368 11.2448487,6.83300208 C11.2776022,6.67539136 11.2940935,6.49610445 11.2940935,6.2952371 C11.2940935,5.82515089 11.1750221,5.51790386 10.9446138,5.36257465 C10.7004058,5.1979423 10.4074435,5.12104737 10.0626806,5.13256825 C9.71190179,5.14429016 9.40121615,5.22006144 9.12960867,5.35947272 C8.87765283,5.48879716 8.75613911,5.6863048 8.75613911,5.96585978 C8.75613911,6.31769216 8.60695149,6.58820288 8.31428488,6.76509304 C8.03673043,6.93284927 7.75088751,7.01739426 7.45472185,7.01733079 C7.08840936,7.00427373 6.81847813,6.91029541 6.64941979,6.72951492 C6.48193451,6.55041657 6.4,6.29430922 6.4,5.96585978 C6.4,5.52295247 6.49792479,5.11361323 6.69374091,4.73924285 C6.88854443,4.36680844 7.1543554,4.04782604 7.49051137,3.78295759 C7.82466017,3.51967067 8.21668445,3.31006745 8.66612139,3.15402851 C9.11531051,2.99807561 9.59613726,2.91393931 10.1081913,2.90149481 Z" id="形状结合" fill="#FFFFFF" fill-rule="nonzero"></path>
    </g>
</svg>