<?xml version="1.0" encoding="UTF-8"?>
<svg width="20px" height="20px" viewBox="0 0 20 20" version="1.1" xmlns="http://www.w3.org/2000/svg" xmlns:xlink="http://www.w3.org/1999/xlink">
    <title>yuliu12</title>
    <g id="yuliu12" stroke="none" stroke-width="1" fill="none" fill-rule="evenodd">
        <rect id="矩形" fill="#30ACF1" x="0" y="0" width="20" height="20" rx="2"></rect>
        <path d="M14.0279634,6.57016898 L14.0395157,6.58027155 L16.8988167,9.2812272 C17.0930311,9.4657596 17.2019021,9.71755008 17.2000188,9.98033816 C17.1979849,10.243001 17.0854122,10.4932257 16.8901786,10.6735568 L14.0421351,13.363053 C13.792421,13.638498 13.4034279,13.7575308 13.0335366,13.6734821 C12.6613433,13.5889104 12.36846,13.3122468 12.2774368,12.9548008 C12.1857791,12.5948633 12.3152392,12.2173554 12.5982856,11.9891417 L14.728,9.977 L12.5956662,7.95418285 C12.2703945,7.59539461 12.2656955,7.07080687 12.5676966,6.70808285 L12.6495784,6.62096362 C13.0259466,6.26543852 13.6242789,6.24360741 14.0279634,6.57016898 Z M7.40209229,6.58068018 C7.80358764,6.96220429 7.80358764,7.58330888 7.40192234,7.96499431 L5.279,9.977 L7.40428033,11.9924403 C7.72955208,12.3512285 7.73425105,12.8758163 7.43224996,13.2385403 L7.35036814,13.3256595 C6.97399998,13.6811846 6.37566768,13.7030157 5.96043083,13.3663516 L3.10112151,10.665388 C2.69962616,10.2838639 2.69962616,9.66275928 3.10176119,9.28062998 L5.96885438,6.58007499 C6.36646476,6.20671189 7.00384224,6.20671189 7.40209229,6.58068018 Z" id="形状结合" fill="#FFFFFF" fill-rule="nonzero"></path>
    </g>
</svg>