<?xml version="1.0" encoding="UTF-8"?>
<svg width="20px" height="20px" viewBox="0 0 20 20" version="1.1" xmlns="http://www.w3.org/2000/svg" xmlns:xlink="http://www.w3.org/1999/xlink">
    <title>yuliu13</title>
    <g id="yuliu13" stroke="none" stroke-width="1" fill="none" fill-rule="evenodd">
        <rect id="矩形" fill="#FF9C24" x="0" y="0" width="20" height="20" rx="2"></rect>
        <path d="M10,2.85 C12.8437366,2.85 15.15,5.1101381 15.15,7.9 C15.15,9.21204198 14.7720277,10.2344095 13.909786,11.3833466 C13.8643603,11.4439002 13.7818186,11.5504825 13.6676749,11.6964499 C13.5927438,11.7922578 13.3955679,12.0433211 13.3873937,12.0539504 C13.22923,12.2601826 13.1347205,12.4015063 13.0751606,12.5200677 C13.0271412,12.6155379 13.0071429,12.685051 13.0071429,12.7403333 L13.0071429,14.2 C13.0071429,15.8299259 11.6601284,17.15 10,17.15 C8.33987156,17.15 6.99285714,15.8299259 6.99285714,14.2 L6.99285714,12.7403333 C6.99285714,12.63213 6.95017492,12.5070408 6.84790036,12.3349273 C6.77904367,12.2189852 6.68642638,12.0876187 6.536864,11.8930911 C6.47051749,11.808319 6.37257487,11.6832419 6.30067438,11.5910748 C6.20134831,11.4637396 6.13043522,11.3721384 6.09187748,11.3210823 C5.2215158,10.1689465 4.85,9.18418417 4.85,7.9 C4.85,5.1101381 7.15626337,2.85 10,2.85 Z M11.278,14.167 L11.1942311,14.1930926 C10.8114649,14.2975659 10.4126037,14.35 10,14.35 C9.58707383,14.35 9.18839032,14.297698 8.80589486,14.1933425 L8.721,14.167 L8.72142857,14.2 C8.72142857,14.8465657 9.2239566,15.3794535 9.86916297,15.4435389 L10,15.45 C10.7068062,15.45 11.2785716,14.8896701 11.2785716,14.1997844 L11.278,14.167 Z M10,4.55 C8.10972303,4.55 6.57857143,6.05052857 6.57857143,7.9 C6.57857143,8.79386647 6.82916599,9.44658855 7.47970499,10.3074551 C7.51419013,10.3532667 7.58327651,10.4424833 7.68214934,10.5692002 C7.84492475,10.7774083 7.90528301,10.8545678 7.91397923,10.8660122 C8.10399842,11.1121878 8.23080979,11.2933056 8.34019131,11.4770667 C8.48764879,11.725332 8.59138634,11.9638863 8.6530493,12.2033565 L8.676,12.31 L8.80229424,12.3780512 C9.1099639,12.5299171 9.43616381,12.6175265 9.78670664,12.6425111 L10,12.65 C10.4335927,12.65 10.8306468,12.5598798 11.2013503,12.3768253 L11.329,12.307 L11.3478227,12.2265899 C11.3749431,12.1247244 11.4103693,12.0228461 11.4540993,11.9202736 L11.5259219,11.7658091 C11.639537,11.5404406 11.7827187,11.3232723 12.0072466,11.0307198 C12.024484,11.0081116 12.0944817,10.9188728 12.2764681,10.6868499 C12.3978212,10.5317978 12.4784738,10.4278112 12.5188057,10.3739597 C13.163641,9.51478064 13.4214286,8.82720036 13.4214286,7.9 C13.4214286,6.05052857 11.890277,4.55 10,4.55 Z" id="形状结合" fill="#FFFFFF" fill-rule="nonzero"></path>
    </g>
</svg>